<?xml version="1.0" encoding="UTF-8"?>
<svg version="1.1" xmlns="http://www.w3.org/2000/svg" width="100" height="98">
<path d="M0 0 C4.9779545 4.02472917 7.2067201 8.93397267 9.8125 14.6875 C10.42254883 15.9878418 10.42254883 15.9878418 11.04492188 17.31445312 C14 23.69642857 14 23.69642857 14 26 C26.21 26 38.42 26 51 26 C51.66 24.02 52.32 22.04 53 20 C54.20227342 17.06230798 55.53865693 14.19135059 56.875 11.3125 C57.38353516 10.17458008 57.38353516 10.17458008 57.90234375 9.01367188 C61.1623796 1.99157945 61.1623796 1.99157945 65 0 C68.4375 -0.5625 68.4375 -0.5625 72 0 C75.09562847 2.76630629 76.81923991 4.57016739 77.34765625 8.75 C76.91628384 12.78260496 75.3986504 15.86359636 73.5 19.375 C73.16613281 20.01566406 72.83226563 20.65632813 72.48828125 21.31640625 C71.66973549 22.88333671 70.83635487 24.44250241 70 26 C71.11503906 26.13148437 72.23007813 26.26296875 73.37890625 26.3984375 C77 27 77 27 78.9375 28.625 C80.44290722 31.99002791 80.44819965 34.35037432 80 38 C78.20437595 40.75329021 76.94745078 42.52627461 74 44 C71.7927077 44.07092842 69.58332548 44.08415025 67.375 44.0625 C66.18648438 44.05347656 64.99796875 44.04445312 63.7734375 44.03515625 C62.85820313 44.02355469 61.94296875 44.01195312 61 44 C60.75612549 44.79962158 60.51225098 45.59924316 60.26098633 46.4230957 C58.70815424 50.82784749 56.79855257 55.00113137 54.82421875 59.23046875 C54.41718216 60.10270584 54.01014557 60.97494293 53.59077454 61.87361145 C52.73130711 63.70928262 51.86970768 65.54395691 51.00610352 67.37768555 C50.125933 69.25324239 49.25224099 71.13185296 48.38500977 73.01342773 C47.128919 75.73848585 45.85389342 78.45392033 44.57421875 81.16796875 C44.19069748 82.00861374 43.80717621 82.84925873 43.41203308 83.71537781 C41.30113151 88.1299554 39.79429397 91.13483183 35 93 C31.4375 93 31.4375 93 28 92 C24.53535659 88.3252229 22.39516952 84.13144364 20.25 79.609375 C19.91000977 78.90532532 19.57001953 78.20127563 19.21972656 77.47589111 C18.140458 75.2367681 17.07027864 72.99343153 16 70.75 C15.28180861 69.25884541 14.56306345 67.7679574 13.84375 66.27734375 C10.45192905 59.23179878 7.11587704 52.17300861 4 45 C2.67935547 44.96132812 2.67935547 44.96132812 1.33203125 44.921875 C0.17058594 44.86515625 -0.99085937 44.8084375 -2.1875 44.75 C-3.33605469 44.70359375 -4.48460937 44.6571875 -5.66796875 44.609375 C-9.55590993 43.898333 -11.25570813 42.8092751 -14 40 C-15.22643832 37.3192012 -15.37973751 34.91504383 -15 32 C-13.65892433 29.21197425 -12.42663449 28.11011695 -10 26 C-7.3203125 25.84375 -7.3203125 25.84375 -5 26 C-5.51691406 24.99839844 -6.03382812 23.99679688 -6.56640625 22.96484375 C-7.232706 21.62285974 -7.89801859 20.28038529 -8.5625 18.9375 C-8.90474609 18.28072266 -9.24699219 17.62394531 -9.59960938 16.94726562 C-11.87978061 12.27176299 -12.40404301 9.20397594 -11 4 C-7.64509796 0.26168058 -4.97760738 -0.93330138 0 0 Z M-4 6 C-5.22744711 9.45429105 -5.00307297 11.51031289 -3.56640625 14.76953125 C-2.91230923 16.12397457 -2.24387185 17.47157046 -1.5625 18.8125 C-1.22412109 19.50537109 -0.88574219 20.19824219 -0.53710938 20.91210938 C0.29630207 22.61414682 1.14651924 24.30793715 2 26 C3.65 26 5.3 26 7 26 C5.55676531 21.26210835 3.62773267 17.01141849 1.375 12.625 C1.05015625 11.98433594 0.7253125 11.34367188 0.390625 10.68359375 C-0.40257407 9.12052499 -1.20077031 7.55999378 -2 6 C-2.66 6 -3.32 6 -4 6 Z M67 6 C65.68253667 8.58090767 64.37090383 11.16450458 63.0625 13.75 C62.68931641 14.47960938 62.31613281 15.20921875 61.93164062 15.9609375 C61.57392578 16.66992188 61.21621094 17.37890625 60.84765625 18.109375 C60.51773682 18.75874023 60.18781738 19.40810547 59.84790039 20.07714844 C58.98547884 22.03293079 58.45625821 23.91540694 58 26 C59.65 26 61.3 26 63 26 C64.1793149 23.77675074 65.34340918 21.54753361 66.5 19.3125 C66.83386719 18.68666016 67.16773437 18.06082031 67.51171875 17.41601562 C69.3695262 13.79518683 70.43750214 11.08595745 70 7 C69.01 6.67 68.02 6.34 67 6 Z M-7 32 C-7.33 33.65 -7.66 35.3 -8 37 C18.73 37 45.46 37 73 37 C73.33 36.01 73.66 35.02 74 34 C73.505 33.01 73.505 33.01 73 32 C46.6 32 20.2 32 -7 32 Z M11 44 C13.53162182 49.69309158 16.08751994 55.37441655 18.66503906 61.046875 C19.55946418 63.0254716 20.44677511 65.00729869 21.32714844 66.9921875 C22.61739146 69.89881036 23.93128845 72.79370254 25.25 75.6875 C25.64944824 76.60168701 26.04889648 77.51587402 26.46044922 78.45776367 C26.84990723 79.30056885 27.23936523 80.14337402 27.640625 81.01171875 C27.97610352 81.75897217 28.31158203 82.50622559 28.65722656 83.27612305 C29.93137154 85.26260013 29.93137154 85.26260013 32.64746094 85.74926758 C33.81196777 85.87338013 33.81196777 85.87338013 35 86 C37.54985359 80.66368101 40.09489024 75.3251021 42.63549805 69.984375 C43.50038892 68.16799064 44.36659079 66.35222992 45.23413086 64.53710938 C46.48116035 61.92741286 47.72345197 59.31550707 48.96484375 56.703125 C49.35341049 55.89256653 49.74197723 55.08200806 50.14231873 54.24688721 C50.50261673 53.48640076 50.86291473 52.72591431 51.23413086 51.94238281 C51.71045204 50.9431076 51.71045204 50.9431076 52.19639587 49.92364502 C53.01289529 47.96913162 53.54114951 46.06512369 54 44 C52.35 44 50.7 44 49 44 C46.85624946 48.35629874 44.72023009 52.71626905 42.59130859 57.07983398 C41.86588786 58.5639442 41.1383597 60.04702624 40.40869141 61.52905273 C39.36065729 63.65862954 38.32024063 65.79178061 37.28125 67.92578125 C36.95314331 68.58838455 36.62503662 69.25098785 36.2869873 69.93367004 C34.89019083 72.81932884 34 74.7500046 34 78 C30.79132692 75.33438908 29.35653125 71.89699745 27.6796875 68.1796875 C27.37555939 67.52042267 27.07143127 66.86115784 26.75808716 66.18191528 C25.79077899 64.08242783 24.83249137 61.97898028 23.875 59.875 C22.90884272 57.76462068 21.94082083 55.65512475 20.9704895 53.54666138 C20.36783641 52.23582211 19.7678861 50.9237363 19.17086792 49.61032104 C17.91580453 46.59199852 17.91580453 46.59199852 16 44 C14.33382885 43.95936168 12.66611905 43.957279 11 44 Z M23 44 C25.97 50.6 28.94 57.2 32 64 C34.51179623 62.74410188 34.76975597 61.76749698 35.9453125 59.25390625 C36.29980469 58.49916016 36.65429688 57.74441406 37.01953125 56.96679688 C37.38433594 56.17337891 37.74914063 55.37996094 38.125 54.5625 C38.49753906 53.77294922 38.87007812 52.98339844 39.25390625 52.16992188 C41.26703221 48.24299414 41.26703221 48.24299414 42 44 C35.73 44 29.46 44 23 44 Z " fill="#2F2C2D" transform="translate(17,3)"/>
<path d="M0 0 C0.598125 0.226875 1.19625 0.45375 1.8125 0.6875 C0.28255208 1.92447917 -1.24739583 3.16145833 -2.77734375 4.3984375 C-4.32016437 5.6541391 -4.32016437 5.6541391 -5.1875 7.6875 C-5.8475 7.6875 -6.5075 7.6875 -7.1875 7.6875 C-4.27205882 -0.61029412 -4.27205882 -0.61029412 0 0 Z " fill="#444243" transform="translate(9.1875,29.3125)"/>
</svg>
