<?xml version="1.0" encoding="UTF-8"?>
<svg version="1.1" xmlns="http://www.w3.org/2000/svg" width="100" height="98">
<path d="M0 0 C3.66172475 0.62678171 6.8818995 1.64451846 10.3125 3.0625 C11.19550781 3.42472656 12.07851563 3.78695313 12.98828125 4.16015625 C13.65214844 4.43730469 14.31601562 4.71445313 15 5 C15 5.66 15 6.32 15 7 C16.8871875 7.58394531 16.8871875 7.58394531 18.8125 8.1796875 C24.42811574 10.05521541 29.68243947 12.53738695 35 15.125 C35.99733154 15.60928467 36.99466309 16.09356934 38.0222168 16.5925293 C40.04713687 17.58077323 42.07019321 18.57284566 44.09130859 19.56884766 C45.95264465 20.48467374 47.81727437 21.39385464 49.68603516 22.29443359 C52.07232346 23.44667391 54.44383559 24.62454123 56.8125 25.8125 C57.51697266 26.14846191 58.22144531 26.48442383 58.94726562 26.83056641 C62.26827451 28.53853763 63.82556079 29.62626997 65.42578125 33.0546875 C66.88910377 40.56043702 65.37309234 45.35922445 62 52 C63.32 52.66 64.64 53.32 66 54 C66 54.66 66 55.32 66 56 C69.71599191 56.20086443 70.77208445 56.1519437 74 54 C75.32 55.32 76.64 56.64 78 58 C76.15611302 63.53166095 71.03453518 66.8494853 66.6953125 70.53125 C63.33000339 73.44681734 60.36896555 76.54588855 57.5625 80 C54.93248768 83.07903881 52.1374966 85.45078401 49 88 C47.3142876 89.64740076 45.6436814 91.31066078 44 93 C43.34 93.66 42.68 94.32 42 95 C37.94817698 94.63079183 34.31968734 92.26713704 30.75 90.4375 C29.30734549 89.70692496 27.86463562 88.97645922 26.421875 88.24609375 C25.31875977 87.68510986 25.31875977 87.68510986 24.19335938 87.11279297 C20.80336943 85.3928938 17.40151102 83.69696482 14 82 C12.67701807 81.33867221 11.35410172 80.67721321 10.03125 80.015625 C9.37253906 79.68626953 8.71382812 79.35691406 8.03515625 79.01757812 C-6.28125 71.859375 -6.28125 71.859375 -8.10766602 70.93774414 C-9.44844928 70.27332039 -10.79906139 69.62856449 -12.15600586 68.99780273 C-12.86635986 68.66208252 -13.57671387 68.3263623 -14.30859375 67.98046875 C-15.27623657 67.53417114 -15.27623657 67.53417114 -16.26342773 67.07885742 C-19.55157186 65.03607535 -20.56685886 62.5516976 -22 59 C-20.87884065 50.41828644 -16.98728479 42.67486841 -12.75 35.25 C-12.36400635 34.57187256 -11.9780127 33.89374512 -11.58032227 33.19506836 C-10.01026216 30.45417076 -8.43222331 27.71984185 -6.80615234 25.01171875 C-1.80665822 16.67853272 1.3457182 10.0368149 0 0 Z M58 56 C57.67 56.99 57.34 57.98 57 59 C57.969375 59.268125 58.93875 59.53625 59.9375 59.8125 C60.948125 60.204375 61.95875 60.59625 63 61 C63.33 61.99 63.66 62.98 64 64 C64.99 62.68 65.98 61.36 67 60 C62.545 58.02 62.545 58.02 58 56 Z M55 63 C54.67 63.99 54.34 64.98 54 66 C54.99 66 55.98 66 57 66 C56.67 66.99 56.34 67.98 56 69 C54.35 69 52.7 69 51 69 C50.30840599 70.84725052 50.30840599 70.84725052 50 73 C50.99 74.485 50.99 74.485 52 76 C54.97 73.03 57.94 70.06 61 67 C59.68 65.68 58.36 64.36 57 63 C56.34 63 55.68 63 55 63 Z M48 76 C47.67 77.32 47.34 78.64 47 80 C47.99 79.01 48.98 78.02 50 77 C49.34 76.67 48.68 76.34 48 76 Z " fill="#F8F5F5" transform="translate(22,3)"/>
<path d="M0 0 C0.99 0 1.98 0 3 0 C5.02393082 4.17435731 5.46195837 7.38041633 5 12 C3.86135464 15.10404625 2.49658535 18.0535976 1 21 C2.32 21.66 3.64 22.32 5 23 C5 23.66 5 24.32 5 25 C8.71599191 25.20086443 9.77208445 25.1519437 13 23 C14.32 24.32 15.64 25.64 17 27 C15.15611302 32.53166095 10.03453518 35.8494853 5.6953125 39.53125 C2.33000339 42.44681734 -0.63103445 45.54588855 -3.4375 49 C-6.06751232 52.07903881 -8.8625034 54.45078401 -12 57 C-13.6857124 58.64740076 -15.3563186 60.31066078 -17 62 C-17.66 62.66 -18.32 63.32 -19 64 C-21 63.9375 -21 63.9375 -23 63 C-25.88200148 58.53289771 -25.9694943 53.07860923 -25 48 C-23.09353909 43.07716086 -20.53812043 38.45232472 -17.99755859 33.83398438 C-16.59578305 31.25685812 -15.29546254 28.63179142 -14 26 C-13.34 26 -12.68 26 -12 26 C-11.62875 24.7625 -11.2575 23.525 -10.875 22.25 C-8.87666889 16.19708401 -5.94698158 10.63645991 -3 5 C-2.01 5 -1.02 5 0 5 C0 3.35 0 1.7 0 0 Z M-3 25 C-3.33 25.99 -3.66 26.98 -4 28 C-3.030625 28.268125 -2.06125 28.53625 -1.0625 28.8125 C-0.051875 29.204375 0.95875 29.59625 2 30 C2.33 30.99 2.66 31.98 3 33 C3.99 31.68 4.98 30.36 6 29 C1.545 27.02 1.545 27.02 -3 25 Z M-6 32 C-6.33 32.99 -6.66 33.98 -7 35 C-6.01 35 -5.02 35 -4 35 C-4.33 35.99 -4.66 36.98 -5 38 C-6.65 38 -8.3 38 -10 38 C-10.69159401 39.84725052 -10.69159401 39.84725052 -11 42 C-10.01 43.485 -10.01 43.485 -9 45 C-6.03 42.03 -3.06 39.06 0 36 C-1.32 34.68 -2.64 33.36 -4 32 C-4.66 32 -5.32 32 -6 32 Z M-13 45 C-13.33 46.32 -13.66 47.64 -14 49 C-13.01 48.01 -12.02 47.02 -11 46 C-11.66 45.67 -12.32 45.34 -13 45 Z " fill="#868686" transform="translate(83,34)"/>
<path d="M0 0 C3.66172475 0.62678171 6.8818995 1.64451846 10.3125 3.0625 C11.19550781 3.42472656 12.07851563 3.78695313 12.98828125 4.16015625 C13.65214844 4.43730469 14.31601562 4.71445313 15 5 C15 5.66 15 6.32 15 7 C16.8871875 7.58394531 16.8871875 7.58394531 18.8125 8.1796875 C24.42840997 10.05531368 29.68137043 12.53912462 35 15.125 C35.99588135 15.60493408 36.9917627 16.08486816 38.01782227 16.5793457 C46.79475717 20.83813073 55.42982348 25.34104498 64 30 C62.515 30.495 62.515 30.495 61 31 C61 32.65 61 34.3 61 36 C60.34 36 59.68 36 59 36 C59 34.35 59 32.7 59 31 C46.62534696 24.73591539 46.62534696 24.73591539 34 19 C34 18.34 34 17.68 34 17 C32.93265625 16.83564453 32.93265625 16.83564453 31.84375 16.66796875 C28.7329289 15.93726764 26.32908735 14.79310753 23.5 13.3125 C17.08113084 10.01524507 10.56847559 6.98759696 4 4 C4.0309375 5.06347656 4.061875 6.12695312 4.09375 7.22265625 C3.97797637 11.88736885 2.79314861 14.74127206 1 19 C0.34 19 -0.32 19 -1 19 C-1.27585937 19.72574219 -1.55171875 20.45148437 -1.8359375 21.19921875 C-2.94528357 23.86835006 -4.20651869 26.29647868 -5.625 28.8125 C-9.65188429 36.09072049 -13.31265603 43.54610897 -17 51 C-17.33 51.66 -17.66 52.32 -18 53 C-18.67317631 58.12302723 -18.67317631 58.12302723 -16.70117188 62.50439453 C-15.00087034 63.99923483 -13.48601479 64.92267988 -11.453125 65.90234375 C-10.7725 66.23556641 -10.091875 66.56878906 -9.390625 66.91210938 C-8.68421875 67.25048828 -7.9778125 67.58886719 -7.25 67.9375 C-3.17013173 69.91273473 0.87576126 71.8889514 4.80078125 74.16015625 C8.1193171 76.06861826 11.4738793 77.5153176 15 79 C17.68791949 80.29137002 20.34093272 81.65042314 23 83 C25.16613353 84.08439895 27.33282425 85.16768544 29.5 86.25 C31.33333333 87.16666667 33.16666667 88.08333333 35 89 C35 86.36 35 83.72 35 81 C35.33 81 35.66 81 36 81 C36.66 84.96 37.32 88.92 38 93 C29.87659221 90.67902635 22.5978638 86.92194849 15.1171875 83.08056641 C12.39966862 81.69360394 9.66605927 80.34053783 6.9309082 78.98876953 C4.28187117 77.67479525 1.64376875 76.33957376 -0.99462891 75.00439453 C-3.05424763 73.97282995 -5.12608907 72.96893325 -7.19921875 71.96484375 C-8.54996369 71.29003149 -9.90024147 70.61428313 -11.25 69.9375 C-11.87011963 69.64552734 -12.49023926 69.35355469 -13.12915039 69.05273438 C-18.05296155 66.5358923 -19.89261948 63.95886191 -22 59 C-21.84375 56.36328125 -21.84375 56.36328125 -21 54 C-20.7834375 53.23042969 -20.566875 52.46085937 -20.34375 51.66796875 C-18.36014987 45.83655171 -15.79248421 40.58125481 -12.75 35.25 C-12.36400635 34.57187256 -11.9780127 33.89374512 -11.58032227 33.19506836 C-10.01026216 30.45417076 -8.43222331 27.71984185 -6.80615234 25.01171875 C-1.80665822 16.67853272 1.3457182 10.0368149 0 0 Z " fill="#B3B3B3" transform="translate(22,3)"/>
<path d="M0 0 C3.79049707 1.42749981 7.27122456 3.16236542 10.8125 5.125 C11.78832031 5.66382813 12.76414062 6.20265625 13.76953125 6.7578125 C14.50558594 7.16773438 15.24164063 7.57765625 16 8 C14.6926925 11.43931834 13.18963666 14.61300905 11.375 17.8125 C10.92898437 18.60269531 10.48296875 19.39289062 10.0234375 20.20703125 C9.68570312 20.79871094 9.34796875 21.39039062 9 22 C3.18738629 20.26017005 -1.83169994 18.1889511 -7 15 C-6.42176904 10.93774452 -5.10882263 8.15237654 -2.9375 4.6875 C-2.38964844 3.80449219 -1.84179688 2.92148437 -1.27734375 2.01171875 C-0.64505859 1.01591797 -0.64505859 1.01591797 0 0 Z " fill="#AEAEAE" transform="translate(19,33)"/>
<path d="M0 0 C3.31851961 0.68517896 6.05959384 1.91423226 9.078125 3.44140625 C10.0673999 3.93906494 11.0566748 4.43672363 12.07592773 4.94946289 C13.64709351 5.74791626 13.64709351 5.74791626 15.25 6.5625 C17.41258761 7.65659163 19.57534865 8.75034053 21.73828125 9.84375 C22.79998535 10.38128906 23.86168945 10.91882813 24.95556641 11.47265625 C27.66098136 12.82991976 30.37706081 14.15850069 33.10546875 15.46875 C33.84700195 15.82767334 34.58853516 16.18659668 35.35253906 16.55639648 C36.71143727 17.21213647 38.07394078 17.86047282 39.44042969 18.50024414 C40.99898105 19.25865766 42.50629562 20.12072721 44 21 C44.495 22.485 44.495 22.485 45 24 C39.41157579 23.44500628 35.08660866 21.35758307 30.13671875 18.88671875 C29.3041304 18.47589554 28.47154205 18.06507233 27.61372375 17.64179993 C25.86273765 16.7742142 24.11384238 15.90239734 22.36694336 15.02661133 C19.68658393 13.68704218 16.99533214 12.37140193 14.30273438 11.05664062 C12.60084893 10.20976581 10.89965181 9.36150603 9.19921875 8.51171875 C8.39199875 8.11989914 7.58477875 7.72807953 6.75309753 7.3243866 C6.01175064 6.94752213 5.27040375 6.57065765 4.5065918 6.18237305 C3.52446968 5.69392159 3.52446968 5.69392159 2.52250671 5.19560242 C0.55799046 3.65289632 0.36468581 2.42000389 0 0 Z " fill="#B3B3B3" transform="translate(8,61)"/>
<path d="M0 0 C5.23209627 1.41408007 9.63093755 3.92924285 14.328125 6.55078125 C17.4906699 8.26613821 20.67831918 9.62118909 24 11 C26.06490969 12.014551 28.11420239 13.05699777 30.1640625 14.1015625 C32.08073351 15.0759862 32.08073351 15.0759862 34.5 15.9375 C38.22236004 17.51950302 41.79690351 19.52018337 45 22 C45 22.66 45 23.32 45 24 C40.68585844 23.57910814 37.66940951 22.46624064 34.00390625 20.1328125 C31.7166643 18.83982972 29.34021224 17.85064235 26.92016602 16.83447266 C23.61095203 15.39634254 20.405702 13.75439034 17.1875 12.125 C16.49333984 11.77566406 15.79917969 11.42632812 15.08398438 11.06640625 C13.69932378 10.36957613 12.31503609 9.67200445 10.93115234 8.97363281 C8.29076037 7.64242128 5.64556486 6.32089544 3 5 C1.66666667 4.33333333 0.33333333 3.66666667 -1 3 C-0.67 2.01 -0.34 1.02 0 0 Z " fill="#B4B4B4" transform="translate(10,53)"/>
<path d="M0 0 C0.66 0 1.32 0 2 0 C1.67 2.64 1.34 5.28 1 8 C2.175625 7.01 2.175625 7.01 3.375 6 C6 4 6 4 8 4 C7.34 6.97 6.68 9.94 6 13 C7.65 11.02 9.3 9.04 11 7 C11.99 7.33 12.98 7.66 14 8 C11.03 11.3 8.06 14.6 5 18 C3.68 17.67 2.36 17.34 1 17 C1.33 15.02 1.66 13.04 2 11 C1.5875 11.495 1.175 11.99 0.75 12.5 C-1 14 -1 14 -5 14 C-4.34580901 8.93001981 -2.1453591 4.58009223 0 0 Z " fill="#F16240" transform="translate(51,26)"/>
<path d="M0 0 C3.07672462 0.66498928 5.71167453 1.70627629 8.546875 3.06640625 C9.81337891 3.6706543 9.81337891 3.6706543 11.10546875 4.28710938 C12.41451172 4.91842773 12.41451172 4.91842773 13.75 5.5625 C14.63816406 5.98724609 15.52632812 6.41199219 16.44140625 6.84960938 C18.62920326 7.89645848 20.81530851 8.94668927 23 10 C23 10.66 23 11.32 23 12 C23.99 12 24.98 12 26 12 C26 12.99 26 13.98 26 15 C20.61196611 14.45106238 16.59204741 12.53479294 11.875 10.0625 C11.17246094 9.70220703 10.46992187 9.34191406 9.74609375 8.97070312 C8.40685487 8.28336219 7.06918245 7.59295706 5.73339844 6.89892578 C3.83193929 5.91284513 1.9197624 4.94993425 0 4 C0 2.68 0 1.36 0 0 Z " fill="#B5B5B5" transform="translate(39,43)"/>
<path d="M0 0 C0.99 0.33 1.98 0.66 3 1 C3.33 3.64 3.66 6.28 4 9 C4.33 8.01 4.66 7.02 5 6 C5.66 6 6.32 6 7 6 C7 5.34 7 4.68 7 4 C7.99 4 8.98 4 10 4 C10 4.99 10 5.98 10 7 C9.34 7 8.68 7 8 7 C7.566875 8.3921875 7.566875 8.3921875 7.125 9.8125 C6 13 6 13 4 16 C3.01 16 2.02 16 1 16 C1 13.03 1 10.06 1 7 C0.34 7 -0.32 7 -1 7 C-1.66 8.65 -2.32 10.3 -3 12 C-3.99 12 -4.98 12 -6 12 C-4.68139111 7.38486888 -2.78644563 3.90102388 0 0 Z " fill="#F26F57" transform="translate(30,16)"/>
<path d="M0 0 C5.37768186 0.54702554 9.36300804 2.45830956 14.0625 4.9375 C20.40788338 8.23503219 20.40788338 8.23503219 27 11 C26.67 12.32 26.34 13.64 26 15 C20.99018924 13.49234535 16.51180806 11.37432101 11.875 9 C11.17246094 8.64421875 10.46992187 8.2884375 9.74609375 7.921875 C8.40769907 7.2438225 7.07008172 6.56423258 5.73339844 5.8828125 C3.8271628 4.91197475 1.91535466 3.95271527 0 3 C0 2.01 0 1.02 0 0 Z " fill="#B7B7B7" transform="translate(35,50)"/>
<path d="M0 0 C8.79572289 3.14576442 16.83654603 7.51554262 25 12 C25 12.99 25 13.98 25 15 C21.34430318 14.40541585 18.43178554 13.39426489 15.13671875 11.71484375 C14.25048828 11.26689453 13.36425781 10.81894531 12.45117188 10.35742188 C11.53916016 9.88884766 10.62714844 9.42027344 9.6875 8.9375 C8.75615234 8.46505859 7.82480469 7.99261719 6.86523438 7.50585938 C4.57401231 6.34262356 2.2857876 5.17386868 0 4 C0 2.68 0 1.36 0 0 Z " fill="#B3B3B3" transform="translate(33,56)"/>
<path d="M0 0 C3.26011642 0.69378511 4.79038253 1.45893991 7 4 C4.03 3.505 4.03 3.505 1 3 C1.66 4.98 2.32 6.96 3 9 C1.35 9 -0.3 9 -2 9 C-2 9.99 -2 10.98 -2 12 C-1.01 12 -0.02 12 1 12 C1 12.99 1 13.98 1 15 C-0.98 14.34 -2.96 13.68 -5 13 C-5 8.85323868 -4.5223055 7.68791935 -2.5 4.25 C-2.0359375 3.45078125 -1.571875 2.6515625 -1.09375 1.828125 C-0.7328125 1.22484375 -0.371875 0.6215625 0 0 Z " fill="#F16141" transform="translate(42,22)"/>
<path d="M0 0 C0.66 0 1.32 0 2 0 C2 2.64 2 5.28 2 8 C2.66 8.33 3.32 8.66 4 9 C3.67 9.99 3.34 10.98 3 12 C2.34 12 1.68 12 1 12 C0.34 12.66 -0.32 13.32 -1 14 C-2.32 14 -3.64 14 -5 14 C-4.34580901 8.93001981 -2.1453591 4.58009223 0 0 Z " fill="#F5998C" transform="translate(51,26)"/>
<path d="M0 0 C1.98 0.66 3.96 1.32 6 2 C6 2.66 6 3.32 6 4 C7.98 4 9.96 4 12 4 C12 4.66 12 5.32 12 6 C10 7.875 10 7.875 7 9 C4.10220937 8.0412116 1.58446187 6.60967724 -1 5 C-1 1 -1 1 0 0 Z " fill="#B4B4B4" transform="translate(82,55)"/>
<path d="M0 0 C0.33 0 0.66 0 1 0 C1.66 3.96 2.32 7.92 3 12 C-4.07372287 9.94633852 -9.81868951 6.98752597 -16 3 C-15.34 2.67 -14.68 2.34 -14 2 C-11.56442428 2.90823027 -9.23804483 3.86828071 -6.875 4.9375 C-6.21628906 5.22818359 -5.55757812 5.51886719 -4.87890625 5.81835938 C-3.24950495 6.53860198 -1.62433868 7.26841143 0 8 C0 5.36 0 2.72 0 0 Z " fill="#B0B0B0" transform="translate(57,84)"/>
<path d="M0 0 C0.99 0.33 1.98 0.66 3 1 C2.34 1 1.68 1 1 1 C1.0928125 2.485 1.0928125 2.485 1.1875 4 C1.21491645 8.46888211 -0.2791773 11.91304608 -2 16 C-2.66 16 -3.32 16 -4 16 C-4.33 16.66 -4.66 17.32 -5 18 C-6 15 -6 15 -4.6875 12.25 C-4.130625 11.1775 -3.57375 10.105 -3 9 C-2.30269194 6.6756398 -1.63087848 4.34326294 -1 2 C-0.67 1.34 -0.34 0.68 0 0 Z " fill="#BABABA" transform="translate(25,6)"/>
<path d="M0 0 C0.66 0 1.32 0 2 0 C3.0326802 2.78823655 3.04509293 3.8677274 2.0625 6.75 C1.711875 7.4925 1.36125 8.235 1 9 C0.34 8.34 -0.32 7.68 -1 7 C-1.33 7.66 -1.66 8.32 -2 9 C-2.99 8.67 -3.98 8.34 -5 8 C-4.67 7.34 -4.34 6.68 -4 6 C-4.27942455 4.32345271 -4.60828247 2.65391846 -5 1 C-3.35 1 -1.7 1 0 1 C0 0.67 0 0.34 0 0 Z " fill="#FBE1DE" transform="translate(48,24)"/>
<path d="M0 0 C1.2065625 0.0309375 1.2065625 0.0309375 2.4375 0.0625 C2.4375 1.0525 2.4375 2.0425 2.4375 3.0625 C1.1175 2.4025 -0.2025 1.7425 -1.5625 1.0625 C-1.211875 1.949375 -0.86125 2.83625 -0.5 3.75 C0.45867134 7.13730539 0.47600183 8.75817599 -0.5625 12.0625 C-1.5625 13.0625 -1.5625 13.0625 -4.125 13.125 C-4.929375 13.104375 -5.73375 13.08375 -6.5625 13.0625 C-6.8925 12.0725 -7.2225 11.0825 -7.5625 10.0625 C-5.9125 10.0625 -4.2625 10.0625 -2.5625 10.0625 C-2.64628906 9.42441406 -2.73007813 8.78632812 -2.81640625 8.12890625 C-2.96916016 6.88947266 -2.96916016 6.88947266 -3.125 5.625 C-3.22941406 4.80128906 -3.33382812 3.97757813 -3.44140625 3.12890625 C-3.48136719 2.44699219 -3.52132812 1.76507813 -3.5625 1.0625 C-2.5625 0.0625 -2.5625 0.0625 0 0 Z " fill="#F26B52" transform="translate(69.5625,35.9375)"/>
<path d="M0 0 C4.75 0.875 4.75 0.875 7 2 C7.625 4.0625 7.625 4.0625 8 6 C7.01 6.66 6.02 7.32 5 8 C3.02 6.68 1.04 5.36 -1 4 C-0.67 2.68 -0.34 1.36 0 0 Z " fill="#BBBBBB" transform="translate(78,62)"/>
<path d="M0 0 C1.32 0 2.64 0 4 0 C5.00772958 3.1959424 5.19442012 4.57177563 3.78515625 7.67578125 C3.21667969 8.54589844 2.64820313 9.41601562 2.0625 10.3125 C1.49660156 11.19550781 0.93070313 12.07851563 0.34765625 12.98828125 C-0.09707031 13.65214844 -0.54179688 14.31601562 -1 15 C-2.1171875 13.234375 -2.1171875 13.234375 -3 11 C-2.06434658 8.35435928 -0.54985485 6.37036624 1 4 C1.66 4 2.32 4 3 4 C3 3.01 3 2.02 3 1 C2.01 0.67 1.02 0.34 0 0 Z " fill="#FACFCA" transform="translate(37,19)"/>
<path d="M0 0 C2.97 0.99 5.94 1.98 9 3 C8.67 4.32 8.34 5.64 8 7 C4.08788267 5.84414715 1.1254959 4.64465038 -2 2 C-1.34 2 -0.68 2 0 2 C0 1.34 0 0.68 0 0 Z " fill="#BFBFBF" transform="translate(53,58)"/>
<path d="M0 0 C0.33 0 0.66 0 1 0 C1.72945995 4.66854369 -0.13686911 7.14756064 -2.62109375 10.86328125 C-4.71350363 14.10562744 -6.32524402 17.52643204 -8 21 C-8.33 20.34 -8.66 19.68 -9 19 C-8.28735352 17.02880859 -8.28735352 17.02880859 -7.12890625 14.6484375 C-6.71962891 13.79765625 -6.31035156 12.946875 -5.88867188 12.0703125 C-5.45103516 11.18085937 -5.01339844 10.29140625 -4.5625 9.375 C-4.12873047 8.4778125 -3.69496094 7.580625 -3.24804688 6.65625 C-2.17237245 4.43397755 -1.08945069 2.21554281 0 0 Z " fill="#ADADAD" transform="translate(80,39)"/>
<path d="M0 0 C1.43931117 0.45261358 2.87638999 0.91232979 4.3125 1.375 C5.11300781 1.63023438 5.91351563 1.88546875 6.73828125 2.1484375 C9 3 9 3 12 5 C12 5.66 12 6.32 12 7 C5.01796407 6.04790419 5.01796407 6.04790419 2 4 C1.2969471 2.68548912 0.6257391 1.35302358 0 0 Z " fill="#AFAFAF" transform="translate(43,70)"/>
<path d="M0 0 C4.49797113 1.68673918 8.72886302 3.81673892 13 6 C9.02634963 7.20153575 6.84785711 6.637386 3 5 C1.125 3.5 1.125 3.5 0 2 C0 1.34 0 0.68 0 0 Z " fill="#BBBBBB" transform="translate(32,80)"/>
<path d="M0 0 C1.65 0.33 3.3 0.66 5 1 C4.01 1.33 3.02 1.66 2 2 C2 2.99 2 3.98 2 5 C2.99 5 3.98 5 5 5 C5 5.99 5 6.98 5 8 C3.02 7.34 1.04 6.68 -1 6 C-1 2 -1 2 0 0 Z " fill="#F26A4C" transform="translate(38,29)"/>
<path d="M0 0 C0.66 0 1.32 0 2 0 C1.40895235 4.84659077 0.02055843 8.60748167 -2 13 C-2.66 13 -3.32 13 -4 13 C-3.71517632 11.58194169 -3.42181856 10.16559621 -3.125 8.75 C-2.96257813 7.96109375 -2.80015625 7.1721875 -2.6328125 6.359375 C-2.00849925 4.03168856 -1.15161458 2.10968048 0 0 Z " fill="#F15934" transform="translate(51,26)"/>
<path d="M0 0 C0.99 0 1.98 0 3 0 C3 0.99 3 1.98 3 3 C2.34 3 1.68 3 1 3 C0.7525 3.94875 0.505 4.8975 0.25 5.875 C-1 9 -1 9 -3.125 10.375 C-3.74375 10.58125 -4.3625 10.7875 -5 11 C-5 9.68 -5 8.36 -5 7 C-4.01 6.67 -3.02 6.34 -2 6 C-0.77479736 2.99152582 -0.77479736 2.99152582 0 0 Z " fill="#F05024" transform="translate(37,20)"/>
<path d="M0 0 C0 0.99 0 1.98 0 3 C-0.99 3 -1.98 3 -3 3 C-3.33 4.65 -3.66 6.3 -4 8 C-5.32 8.33 -6.64 8.66 -8 9 C-6.53333333 3.5 -6.53333333 3.5 -4 1.125 C-2 0 -2 0 0 0 Z " fill="#F15A31" transform="translate(32,19)"/>
<path d="M0 0 C0.66 0.99 1.32 1.98 2 3 C0.35 6.3 -1.3 9.6 -3 13 C-4.11529858 8.53880569 -3.67626679 7.14655469 -2 3 C-1.34 2.01 -0.68 1.02 0 0 Z " fill="#BDBDBD" transform="translate(9,39)"/>
<path d="M0 0 C4.49797113 1.68673918 8.72886302 3.81673892 13 6 C10.44855176 6.93045933 9.25993522 7.08564091 6.640625 6.22265625 C5.85171875 5.83980469 5.0628125 5.45695312 4.25 5.0625 C3.45078125 4.68222656 2.6515625 4.30195313 1.828125 3.91015625 C1.22484375 3.60980469 0.6215625 3.30945313 0 3 C0 2.01 0 1.02 0 0 Z " fill="#B1B1B1" transform="translate(65,23)"/>
<path d="M0 0 C0.99 0 1.98 0 3 0 C3.66 2.31 4.32 4.62 5 7 C3.68 7 2.36 7 1 7 C0.67 4.69 0.34 2.38 0 0 Z " fill="#989898" transform="translate(83,34)"/>
<path d="M0 0 C2.96175123 0.61277612 4.38058783 1.25372522 7 3 C6.34 3 5.68 3 5 3 C5.33 3.99 5.66 4.98 6 6 C4.02 5.34 2.04 4.68 0 4 C0 2.68 0 1.36 0 0 Z " fill="#BBBBBB" transform="translate(39,43)"/>
<path d="M0 0 C3.34373475 0.55728913 6.03312999 1.35173889 9 3 C6 4 6 4 3 3 C2.67 3.99 2.34 4.98 2 6 C0 3 0 3 0 0 Z " fill="#AFAFAF" transform="translate(22,3)"/>
<path d="M0 0 C0.99 0.33 1.98 0.66 3 1 C3.66 1 4.32 1 5 1 C3.70700306 3.88437779 2.34058637 5.87219421 0 8 C-0.66 7.67 -1.32 7.34 -2 7 C-1.34 6.01 -0.68 5.02 0 4 C-0.33 3.34 -0.66 2.68 -1 2 C-0.67 1.34 -0.34 0.68 0 0 Z " fill="#B1B1B1" transform="translate(71,76)"/>
<path d="M0 0 C2.0625 0.4375 2.0625 0.4375 4 1 C1.53846154 5.8 1.53846154 5.8 -1.1875 6.8125 C-1.785625 6.874375 -2.38375 6.93625 -3 7 C-1.125 1.125 -1.125 1.125 0 0 Z " fill="#EFEFEF" transform="translate(14,35)"/>
<path d="M0 0 C2.9375 0.8125 2.9375 0.8125 6 2 C6.33 2.99 6.66 3.98 7 5 C4.03 4.505 4.03 4.505 1 4 C0.67 2.68 0.34 1.36 0 0 Z " fill="#AEAEAE" transform="translate(46,80)"/>
<path d="M0 0 C-0.59861742 2.35171131 -1.26924352 4.6859378 -2 7 C-2.99 7.495 -2.99 7.495 -4 8 C-4 7.01 -4 6.02 -4 5 C-4.66 4.67 -5.32 4.34 -6 4 C-2.25 0 -2.25 0 0 0 Z " fill="#F15A37" transform="translate(59,30)"/>
<path d="M0 0 C3.1875 0.875 3.1875 0.875 6 2 C6 2.99 6 3.98 6 5 C3.03 4.01 0.06 3.02 -3 2 C-2.01 1.34 -1.02 0.68 0 0 Z " fill="#BEBEBE" transform="translate(59,20)"/>
<path d="M0 0 C0.66 0 1.32 0 2 0 C2 2.97 2 5.94 2 9 C1.34 7.68 0.68 6.36 0 5 C-1.32 5.33 -2.64 5.66 -4 6 C-2.7260411 3.96166576 -1.38938077 1.96147874 0 0 Z " fill="#FAD9D6" transform="translate(29,23)"/>
<path d="M0 0 C1.98 0.495 1.98 0.495 4 1 C3.67 2.32 3.34 3.64 3 5 C1.68 4.67 0.36 4.34 -1 4 C-0.67 2.68 -0.34 1.36 0 0 Z " fill="#B3B3B3" transform="translate(75,68)"/>
<path d="M0 0 C2.9375 0.8125 2.9375 0.8125 6 2 C6.33 2.99 6.66 3.98 7 5 C4.625 4.75 4.625 4.75 2 4 C0.6875 1.9375 0.6875 1.9375 0 0 Z " fill="#AAAAAA" transform="translate(46,55)"/>
<path d="M0 0 C0.33 0.99 0.66 1.98 1 3 C-0.9375 5.6875 -0.9375 5.6875 -3 8 C-3.75 6.25 -3.75 6.25 -4 4 C-2.0625 1.75 -2.0625 1.75 0 0 Z " fill="#FBDFDC" transform="translate(38,26)"/>
<path d="M0 0 C3.68754757 0.49831724 5.60490662 1.10067643 8 4 C2.25 3.125 2.25 3.125 0 2 C0 1.34 0 0.68 0 0 Z " fill="#ABABAB" transform="translate(22,60)"/>
<path d="M0 0 C2.475 0.99 2.475 0.99 5 2 C5 2.66 5 3.32 5 4 C2.69 3.67 0.38 3.34 -2 3 C-1.34 2.67 -0.68 2.34 0 2 C0 1.34 0 0.68 0 0 Z " fill="#B5B5B5" transform="translate(53,58)"/>
<path d="" fill="#B6B6B6" transform="translate(0,0)"/>
</svg>
