<?xml version="1.0" encoding="iso-8859-1"?>
<!-- Uploaded to: SVG Repo, www.svgrepo.com, Generator: SVG Repo Mixer Tools -->
<svg height="800px" width="800px" version="1.1" id="Layer_1" xmlns="http://www.w3.org/2000/svg" xmlns:xlink="http://www.w3.org/1999/xlink" 
	 viewBox="0 0 512 512" xml:space="preserve">
<polygon style="fill:#42C8C6;" points="408.511,8.17 408.511,62.638 332.255,128 375.83,8.17 "/>
<polygon style="fill:#81E3E2;" points="375.83,8.17 375.83,149.787 103.489,62.638 103.489,8.17 "/>
<polygon style="fill:#FE5F1A;" points="408.511,62.638 408.511,503.83 375.83,482.816 332.255,245.493 375.83,62.638 "/>
<polygon style="fill:#FE834D;" points="375.83,62.638 375.83,482.816 256,405.787 212.426,206.979 256,62.638 "/>
<polygon style="fill:#FEA680;" points="256,62.638 256,405.787 223.319,426.801 168.851,217.486 223.319,62.638 "/>
<polygon style="fill:#FFC1A6;" points="223.319,62.638 223.319,426.801 103.489,503.83 103.489,62.638 "/>
<path d="M408.511,0H103.489c-4.513,0-8.17,3.658-8.17,8.17v495.66c0,2.989,1.632,5.739,4.255,7.171
	c2.621,1.431,5.82,1.317,8.333-0.298L256,415.5l148.092,95.203c1.342,0.863,2.879,1.297,4.418,1.297
	c1.344,0,2.693-0.331,3.915-0.999c2.623-1.432,4.255-4.182,4.255-7.171V8.17C416.681,3.658,413.024,0,408.511,0z M400.34,16.34
	v38.128H111.66V16.34H400.34z M260.418,398.914c-1.346-0.865-2.882-1.297-4.418-1.297c-1.536,0-3.072,0.432-4.418,1.297
	L111.66,488.865V70.809h136.17V128c0,4.512,3.657,8.17,8.17,8.17s8.17-3.658,8.17-8.17V70.809h136.17v418.057L260.418,398.914z"/>
<path d="M256,152.511c-4.513,0-8.17,3.658-8.17,8.17v212.426c0,4.512,3.657,8.17,8.17,8.17s8.17-3.658,8.17-8.17V160.681
	C264.17,156.169,260.513,152.511,256,152.511z"/>
</svg>